#!OML:ASF F:\VICON\USERDATA\INSTALL\rory3\rory3.ASF
:FULLY-SPECIFIED
:DEGREES
338
root 4.84922 17.888 8.51131 -182.599 -8.12847 177.511
lowerback 12.6006 1.3734 0.927808
upperback 0.121788 1.90257 0.166406
thorax -6.92236 0.86969 -0.692813
lowerneck -19.7389 -2.61636 -12.079
upperneck 34.344 -4.05878 6.34736
head 15.872 -3.17489 3.85339
rclavicle 3.77691e-014 -1.35174e-014
rhumerus -32.4763 -14.0955 -75.9858
rradius 34.8411
rwrist 5.13209
rhand -15.6099 7.50213
rfingers 7.12502
rthumb 10.5765 -22.2117
lclavicle 3.77691e-014 -1.35174e-014
lhumerus -35.8153 11.7971 78.0975
lradius 31.41
lwrist -7.72398
lhand -22.2414 24.8002
lfingers 7.12502
lthumb 4.1757 54.7391
rfemur 2.21512 0.811176 12.3248
rtibia 23.511
rfoot -20.7128 5.85465
rtoes -11.9273
lfemur -3.89317 -12.3046 -1.68623
ltibia 22.5191
lfoot 3.61878 -8.09271
ltoes 5.16048
339
root 4.75031 17.8757 8.51198 -182.68 -7.91246 177.553
lowerback 12.6715 1.33144 1.01305
upperback 0.0969162 1.86074 0.169876
thorax -6.98685 0.845789 -0.731864
lowerneck -19.8029 -2.60185 -11.9764
upperneck 34.4531 -4.06017 6.25204
head 15.9353 -3.18575 3.79415
rclavicle 2.82771e-014 -1.11319e-014
rhumerus -32.4671 -14.0386 -75.899
rradius 34.7325
rwrist 5.26156
rhand -15.5334 7.31286
rfingers 7.12502
rthumb 10.6503 -22.3972
lclavicle 2.82771e-014 -1.11319e-014
lhumerus -35.9291 11.6009 78.1485
lradius 31.5587
lwrist -7.58781
lhand -21.3713 23.898
lfingers 7.12502
lthumb 5.01581 53.8186
rfemur 2.35117 1.16588 12.0584
rtibia 23.3813
rfoot -20.7179 5.82538
rtoes -12.1783
lfemur -3.53416 -12.625 -1.45243
ltibia 21.9416
lfoot 3.76154 -8.25434
ltoes 3.91479
340
root 4.64795 17.8594 8.50952 -182.774 -7.69361 177.433
lowerback 12.7407 1.31155 0.936981
upperback 0.100542 1.82227 0.161071
thorax -7.02477 0.828675 -0.692931
lowerneck -19.9479 -2.62185 -11.9997
upperneck 34.6012 -4.08071 6.2212
head 16.0459 -3.21245 3.78272
rclavicle -1.37161e-014 -6.36111e-015
rhumerus -32.4844 -13.9546 -75.7723
rradius 34.6831
rwrist 5.22761
rhand -15.5236 7.3535
rfingers 7.12502
rthumb 10.6597 -22.3561
lclavicle -1.37161e-014 -6.36111e-015
lhumerus -36.0623 11.3753 78.2779
lradius 31.8327
lwrist -7.33966
lhand -20.922 23.6731
lfingers 7.12502
lthumb 5.44964 53.5831
rfemur 2.52447 1.50557 11.5951
rtibia 23.2842
rfoot -20.7741 5.73503
rtoes -12.685
lfemur -3.13923 -12.9519 -1.45246
ltibia 21.3668
lfoot 3.78979 -8.53252
ltoes 3.2671
341
root 4.54576 17.8456 8.50831 -182.766 -7.49216 177.359
lowerback 12.6509 1.28863 0.843744
upperback 0.108164 1.77912 0.184358
thorax -6.97038 0.811966 -0.605435
lowerneck -19.9813 -2.63427 -12.0294
upperneck 34.6026 -4.09841 6.24569
head 16.0584 -3.22175 3.79476
rclavicle 2.53947e-014 3.57812e-015
rhumerus -32.4984 -13.9131 -75.6424
rradius 34.6848
rwrist 5.22068
rhand -15.6697 7.30777
rfingers 7.12502
rthumb 10.5188 -22.409
lclavicle 2.53947e-014 3.57812e-015
lhumerus -36.0835 11.4373 78.3425
lradius 31.994
lwrist -7.2148
lhand -21.0331 23.7609
lfingers 7.12502
lthumb 5.34243 53.6736
rfemur 2.53953 1.8125 11.1719
rtibia 23.2651
rfoot -20.8337 5.7321
rtoes -12.977
lfemur -2.87657 -13.306 -1.41189
ltibia 20.7509
lfoot 4.05422 -8.964
ltoes 3.14674
342
root 4.44107 17.8304 8.51119 -182.704 -7.2724 177.379
lowerback 12.5023 1.28648 0.822214
upperback 0.106933 1.77761 0.251969
thorax -6.89088 0.814384 -0.51801
lowerneck -19.8374 -2.63107 -12.038
upperneck 34.4338 -4.09599 6.26374
head 15.9409 -3.21146 3.80079
rclavicle -6.68413e-015 -4.37326e-015
rhumerus -32.38 -14.0159 -75.395
rradius 34.4519
rwrist 5.3824
rhand -15.6562 7.1539
rfingers 7.12502
rthumb 10.5318 -22.5622
lclavicle -6.68413e-015 -4.37326e-015
lhumerus -35.972 11.5966 78.4155
lradius 31.9809
lwrist -7.34073
lhand -20.9348 23.6294
lfingers 7.12502
lthumb 5.43731 53.5397
rfemur 2.4276 2.1385 10.847
rtibia 23.2977
rfoot -20.877 5.69005
rtoes -13.3976
lfemur -2.7542 -13.5208 -1.2834
ltibia 20.1484
lfoot 4.60519 -9.6242
ltoes 3.3511
343
root 4.33094 17.8143 8.51294 -182.615 -7.08556 177.311
lowerback 12.4095 1.27379 0.810042
upperback 0.0557109 1.76212 0.254721
thorax -6.89386 0.808672 -0.504064
lowerneck -19.7741 -2.64866 -12.0653
upperneck 34.3739 -4.12161 6.26852
head 15.9007 -3.22446 3.80075
rclavicle 3.2551e-015 1.82882e-014
rhumerus -32.3533 -14.2311 -75.1021
rradius 34.1991
rwrist 5.51824
rhand -15.5221 7.2207
rfingers 7.12502
rthumb 10.6612 -22.4888
lclavicle 3.2551e-015 1.82882e-014
lhumerus -36.0099 11.4499 78.5249
lradius 32.1446
lwrist -7.32028
lhand -20.757 23.6871
lfingers 7.12502
lthumb 5.60893 53.5928
rfemur 2.30852 2.37073 10.3932
rtibia 23.3204
rfoot -20.9789 5.58571
rtoes -14.3271
lfemur -2.59704 -13.7674 -1.30751
ltibia 19.5966
lfoot 4.86687 -10.3165
ltoes 2.09868
344
root 4.22164 17.7963 8.51409 -182.574 -7.01918 177.378
lowerback 12.3294 1.21532 0.896643
upperback 0.0159544 1.70085 0.286242
thorax -6.89026 0.777351 -0.507335
lowerneck -19.8136 -2.6828 -12.1138
upperneck 34.4224 -4.19441 6.3403
head 15.9468 -3.25703 3.82701
rclavicle -3.45388e-015 7.15625e-015
rhumerus -32.3862 -14.3274 -74.8994
rradius 34.0767
rwrist 5.47273
rhand -15.4733 7.13516
rfingers 7.12502
rthumb 10.7083 -22.5719
lclavicle -3.45388e-015 7.15625e-015
lhumerus -36.0582 11.3387 78.6006
lradius 32.3326
lwrist -7.38455
lhand -20.6339 24.2279
lfingers 7.12502
lthumb 5.72785 54.1304
rfemur 2.27757 2.67353 10.1416
rtibia 23.3635
rfoot -21.0954 5.19503
rtoes -15.6737
lfemur -2.42226 -14.1809 -1.2098
ltibia 19.0783
lfoot 4.91225 -10.821
ltoes -0.205862
345
root 4.10914 17.7761 8.51681 -182.559 -6.95046 177.522
lowerback 12.2436 1.16208 1.05687
upperback 0.0320928 1.65463 0.338634
thorax -6.82234 0.750626 -0.531869
lowerneck -19.9603 -2.73889 -12.1819
upperneck 34.4451 -4.29332 6.5017
head 16.0124 -3.28234 3.89186
rclavicle 7.40473e-015 -6.36111e-015
rhumerus -32.34 -14.4637 -74.6793
rradius 33.9456
rwrist 5.53174
rhand -15.3352 7.38561
rfingers 7.12502
rthumb 10.8415 -22.3146
lclavicle 7.40473e-015 -6.36111e-015
lhumerus -35.9256 11.4897 78.6165
lradius 32.4072
lwrist -7.61182
lhand -20.5767 24.6655
lfingers 7.12502
lthumb 5.78309 54.5666
rfemur 2.24842 2.91099 9.93977
rtibia 23.4419
rfoot -21.1852 4.90558
rtoes -16.631
lfemur -2.32098 -14.4455 -1.04998
ltibia 18.5899
lfoot 5.13177 -11.3095
ltoes -1.79718
346
root 3.99085 17.7571 8.5182 -182.459 -6.76793 177.515
lowerback 12.179 1.17464 1.11276
upperback -0.0146725 1.68157 0.337877
thorax -6.83369 0.762835 -0.568215
lowerneck -20.1267 -2.79883 -12.0833
upperneck 34.4844 -4.37134 6.43557
head 16.0777 -3.30751 3.83086
rclavicle -6.80837e-015 -1.51076e-014
rhumerus -32.4012 -14.6602 -74.3987
rradius 33.8192
rwrist 5.51852
rhand -15.441 7.59959
rfingers 7.12502
rthumb 10.7394 -22.1059
lclavicle -6.80837e-015 -1.51076e-014
lhumerus -35.8148 11.3714 78.7422
lradius 32.4679
lwrist -7.45548
lhand -20.6831 24.9035
lfingers 7.12502
lthumb 5.68027 54.8074
rfemur 2.06414 3.10711 9.50749
rtibia 23.5716
rfoot -21.1912 4.89595
rtoes -16.7604
lfemur -2.2317 -14.4579 -1.09658
ltibia 18.1251
lfoot 4.90897 -11.8541
ltoes -5.62369
347
root 3.87213 17.7336 8.52033 -182.427 -6.59504 177.423
lowerback 12.2402 1.19483 1.0454
upperback -0.129698 1.70601 0.340414
thorax -6.99247 0.777398 -0.535176
lowerneck -19.9957 -2.80121 -12.0205
upperneck 34.4743 -4.42558 6.4067
head 16.0453 -3.33358 3.79471
rclavicle -1.82136e-014 9.54166e-015
rhumerus -32.6444 -14.8432 -74.0265
rradius 33.7088
rwrist 5.52763
rhand -15.5147 7.67279
rfingers 7.12502
rthumb 10.6683 -22.0364
lclavicle -1.82136e-014 9.54166e-015
lhumerus -35.9667 11.0711 78.9076
lradius 32.6161
lwrist -7.10254
lhand -20.8198 24.708
lfingers 7.12502
lthumb 5.54834 54.6154
rfemur 1.91633 3.41883 9.00722
rtibia 23.7581
rfoot -21.1427 4.76982
rtoes -17.3351
lfemur -2.0056 -14.5263 -1.29529
ltibia 17.6703
lfoot 4.16164 -12.3466
ltoes -11.0805
348
root 3.75267 17.7047 8.52597 -182.432 -6.426 177.438
lowerback 12.3011 1.19704 1.04108
upperback -0.208968 1.71567 0.382426
thorax -7.11281 0.782805 -0.492783
lowerneck -19.893 -2.78796 -11.9525
upperneck 34.4539 -4.46163 6.41269
head 16.0127 -3.34436 3.77683
rclavicle -7.77745e-015 9.54166e-015
rhumerus -32.8185 -15.0409 -73.6737
rradius 33.5696
rwrist 5.59665
rhand -15.3612 7.63301
rfingers 7.12502
rthumb 10.8164 -22.0685
lclavicle -7.77745e-015 9.54166e-015
lhumerus -36.1252 11.1394 78.931
lradius 32.7146
lwrist -7.20872
lhand -20.8288 24.3193
lfingers 7.12502
lthumb 5.53961 54.2269
rfemur 1.76427 3.803 8.64723
rtibia 23.9964
rfoot -21.1185 4.52973
rtoes -17.8599
lfemur -1.7579 -14.6907 -1.41161
ltibia 17.2792
lfoot 3.45022 -12.7829
ltoes -14.7709
349
root 3.62898 17.68 8.52995 -182.362 -6.24971 177.56
lowerback 12.2012 1.16996 1.13496
upperback -0.224978 1.69837 0.466445
thorax -7.07359 0.773095 -0.451773
lowerneck -20.0027 -2.83007 -11.9905
upperneck 34.463 -4.53763 6.52043
head 16.0577 -3.36432 3.8163
rclavicle -9.86469e-015 3.18055e-015
rhumerus -32.859 -15.1457 -73.4146
rradius 33.5313
rwrist 5.60654
rhand -15.1604 7.35235
rfingers 7.12502
rthumb 11.0101 -22.3389
lclavicle -9.86469e-015 3.18055e-015
lhumerus -36.1 11.2951 78.9961
lradius 32.794
lwrist -7.21451
lhand -20.7919 24.2128
lfingers 7.12502
lthumb 5.57527 54.1194
rfemur 1.51229 4.07585 8.36867
rtibia 24.2257
rfoot -21.0892 4.43323
rtoes -17.586
lfemur -1.61564 -14.7453 -1.43025
ltibia 17.0386
lfoot 2.7662 -13.2208
ltoes -16.8811
350
root 3.50061 17.6572 8.53114 -182.298 -6.10045 177.553
lowerback 12.0684 1.1445 1.13026
upperback -0.227372 1.6648 0.49635
thorax -7.00257 0.758508 -0.40863
lowerneck -20.1237 -2.90019 -12.0701
upperneck 34.4964 -4.67203 6.69291
head 16.1291 -3.40759 3.88071
rclavicle -1.82882e-014 -9.54166e-015
rhumerus -32.8464 -15.2054 -73.1903
rradius 33.4239
rwrist 5.59861
rhand -15.2507 7.30897
rfingers 7.12502
rthumb 10.9229 -22.3869
lclavicle -1.82882e-014 -9.54166e-015
lhumerus -35.9986 11.1826 79.1687
lradius 32.8693
lwrist -6.94117
lhand -20.8828 24.3601
lfingers 7.12502
lthumb 5.48746 54.269
rfemur 1.31493 4.21386 7.90365
rtibia 24.4225
rfoot -21.1336 4.43876
rtoes -17.9472
lfemur -1.42861 -14.7036 -1.65212
ltibia 16.934
lfoot 2.03496 -13.4307
ltoes -18.5425
